<?xml version="1.0" encoding="UTF-8"?>
<svg xmlns="http://www.w3.org/2000/svg" viewBox="0 0 720 400" role="img" aria-labelledby="t d">
  <title id="t">Panama residential pipeline by zone 2018-2026</title>
  <desc id="d">Time-series of permitted residential project pipeline showing coastal projects accelerating to match urban pipeline by 2026.</desc>
  <rect width="720" height="400" fill="#FFFDF5"/>
  <text x="48" y="38" font-family="JetBrains Mono, monospace" font-size="10" fill="#C2452A" letter-spacing="1.6">PANAMA SUPPLY · 2026 OUTLOOK</text>
  <text x="48" y="76" font-family="Fraunces, Georgia, serif" font-size="40" font-weight="500" fill="#0B2733" letter-spacing="-0.6">42 projects</text>
  <text x="48" y="98" font-family="Manrope, sans-serif" font-size="13" fill="#3A4F58">Permitted residential pipeline · coastal vs urban · 2018 → 2026</text>
  <g font-family="JetBrains Mono, monospace" font-size="10" fill="#6F8089" letter-spacing="1"><line x1="80" y1="160" x2="680" y2="160" stroke="#E8DECC"/>
<text x="64" y="164" text-anchor="end">44</text>
<line x1="80" y1="220" x2="680" y2="220" stroke="#E8DECC"/>
<text x="64" y="224" text-anchor="end">33</text>
<line x1="80" y1="280" x2="680" y2="280" stroke="#E8DECC"/>
<text x="64" y="284" text-anchor="end">22</text>
<line x1="80" y1="340" x2="680" y2="340" stroke="#E8DECC"/>
<text x="64" y="344" text-anchor="end">10</text>
</g>
  <g font-family="JetBrains Mono, monospace" font-size="10" fill="#6F8089" letter-spacing="1"><text x="80" y="362" text-anchor="middle">2018</text>
<text x="155" y="362" text-anchor="middle">2019</text>
<text x="230" y="362" text-anchor="middle">2020</text>
<text x="305" y="362" text-anchor="middle">2021</text>
<text x="380" y="362" text-anchor="middle">2022</text>
<text x="455" y="362" text-anchor="middle">2023</text>
<text x="530" y="362" text-anchor="middle">2024</text>
<text x="605" y="362" text-anchor="middle">2025</text>
<text x="680" y="362" text-anchor="middle">2026</text>
</g>
  <polyline points="80,246 155,225 230,246 305,235 380,214 455,203 530,193 605,182 680,171" fill="none" stroke="#0B2733" stroke-width="1.5" stroke-dasharray="3 4"/>
  <polyline points="80,332 155,316 230,337 305,300 380,268 455,225 530,193 605,182 680,171" fill="none" stroke="#E86E4F" stroke-width="2.5" stroke-linejoin="round"/>
  <g fill="#E86E4F"><circle cx="80" cy="332" r="3.5"/>
<circle cx="155" cy="316" r="3.5"/>
<circle cx="230" cy="337" r="3.5"/>
<circle cx="305" cy="300" r="3.5"/>
<circle cx="380" cy="268" r="3.5"/>
<circle cx="455" cy="225" r="3.5"/>
<circle cx="530" cy="193" r="3.5"/>
<circle cx="605" cy="182" r="3.5"/>
<circle cx="680" cy="171" r="3.5"/>
</g>
  
  <text x="688" y="171" font-family="JetBrains Mono, monospace" font-size="11" font-weight="500" fill="#C2452A">42</text>
<text x="688" y="171" font-family="JetBrains Mono, monospace" font-size="11" fill="#0B2733">42</text>
  <g font-family="JetBrains Mono, monospace" font-size="10" letter-spacing="1.4"><line x1="48" y1="386" x2="68" y2="386" stroke="#E86E4F" stroke-width="2.5"/><text x="74" y="389" fill="#0B2733">COASTAL PIPELINE</text><line x1="160" y1="386" x2="180" y2="386" stroke="#0B2733" stroke-width="1.5" stroke-dasharray="3 4"/><text x="186" y="389" fill="#0B2733">URBAN PIPELINE</text></g>
  <text x="680" y="389" font-family="JetBrains Mono, monospace" font-size="10" fill="#6F8089" text-anchor="end" letter-spacing="1">Source · Ministry of Housing · Apr 2026</text>
</svg>