<?xml version="1.0" encoding="UTF-8"?>
<svg xmlns="http://www.w3.org/2000/svg" viewBox="0 0 720 498" role="img" aria-labelledby="t d">
  <title id="t">Panama City apartment rents by neighborhood, 2026</title>
  <desc id="d">Bar chart of 6 Panama City neighborhoods comparing standard and premium furnished 1-bedroom monthly rent.</desc>
  <rect width="720" height="498" fill="#FFFDF5"/>
  <text x="48" y="34" font-family="JetBrains Mono, monospace" font-size="10" fill="#C2452A" letter-spacing="1.6">1BR FURNISHED RENT · 2026</text>
  <text x="48" y="74" font-family="Fraunces, Georgia, serif" font-size="48" font-weight="500" fill="#0B2733" letter-spacing="-1">$1,400</text>
  <text x="48" y="100" font-family="Manrope, sans-serif" font-size="13" font-weight="500" fill="#3A4F58">Median monthly rent for furnished 1BR apartment by Panama City barrio</text>
  <g font-family="Manrope, sans-serif">
        <text x="48" y="148" font-size="12" fill="#3A4F58">Punta Pacifica</text>
        <rect x="200" y="138" width="334" height="14" fill="#E86E4F" rx="3"/>
        <text x="540" y="148" font-family="JetBrains Mono, monospace" font-size="11" fill="#0B2733">$2,200</text>
        <rect x="200" y="156" width="380" height="14" fill="#0B2733" rx="3"/>
        <text x="586" y="166" font-family="JetBrains Mono, monospace" font-size="11" fill="#0B2733">$2,500</text>
        <text x="48" y="196" font-size="12" fill="#3A4F58">Costa del Este</text>
        <rect x="200" y="186" width="273" height="14" fill="#E86E4F" rx="3"/>
        <text x="479" y="196" font-family="JetBrains Mono, monospace" font-size="11" fill="#0B2733">$1,800</text>
        <rect x="200" y="204" width="319" height="14" fill="#0B2733" rx="3"/>
        <text x="525" y="214" font-family="JetBrains Mono, monospace" font-size="11" fill="#0B2733">$2,100</text>
        <text x="48" y="244" font-size="12" fill="#3A4F58">Casco Viejo</text>
        <rect x="200" y="234" width="228" height="14" fill="#E86E4F" rx="3"/>
        <text x="434" y="244" font-family="JetBrains Mono, monospace" font-size="11" fill="#0B2733">$1,500</text>
        <rect x="200" y="252" width="281" height="14" fill="#0B2733" rx="3"/>
        <text x="487" y="262" font-family="JetBrains Mono, monospace" font-size="11" fill="#0B2733">$1,850</text>
        <text x="48" y="292" font-size="12" fill="#3A4F58">San Francisco</text>
        <rect x="200" y="282" width="182" height="14" fill="#E86E4F" rx="3"/>
        <text x="388" y="292" font-family="JetBrains Mono, monospace" font-size="11" fill="#0B2733">$1,200</text>
        <rect x="200" y="300" width="220" height="14" fill="#0B2733" rx="3"/>
        <text x="426" y="310" font-family="JetBrains Mono, monospace" font-size="11" fill="#0B2733">$1,450</text>
        <text x="48" y="340" font-size="12" fill="#3A4F58">El Cangrejo</text>
        <rect x="200" y="330" width="136" height="14" fill="#E86E4F" rx="3"/>
        <text x="342" y="340" font-family="JetBrains Mono, monospace" font-size="11" fill="#0B2733">$900</text>
        <rect x="200" y="348" width="174" height="14" fill="#0B2733" rx="3"/>
        <text x="380" y="358" font-family="JetBrains Mono, monospace" font-size="11" fill="#0B2733">$1,150</text>
        <text x="48" y="388" font-size="12" fill="#3A4F58">Bella Vista</text>
        <rect x="200" y="378" width="167" height="14" fill="#E86E4F" rx="3"/>
        <text x="373" y="388" font-family="JetBrains Mono, monospace" font-size="11" fill="#0B2733">$1,100</text>
        <rect x="200" y="396" width="205" height="14" fill="#0B2733" rx="3"/>
        <text x="411" y="406" font-family="JetBrains Mono, monospace" font-size="11" fill="#0B2733">$1,350</text>
  </g>
  <g font-family="JetBrains Mono, monospace" font-size="10" letter-spacing="1.4">
    <rect x="48" y="454" width="10" height="10" fill="#E86E4F"/>
    <text x="64" y="463" fill="#0B2733">STANDARD</text>
    <rect x="180" y="454" width="10" height="10" fill="#0B2733"/>
    <text x="196" y="463" fill="#0B2733">PREMIUM</text>
  </g>
  <text x="672" y="463" font-family="JetBrains Mono, monospace" font-size="10" fill="#6F8089" text-anchor="end" letter-spacing="1">Source · ACOBIR / direct listings · Apr 2026</text>
</svg>