<?xml version="1.0" encoding="UTF-8"?>
<svg xmlns="http://www.w3.org/2000/svg" viewBox="0 0 720 498" role="img" aria-labelledby="t d">
  <title id="t">Panama ATM withdrawal fees for non-clients, 2026</title>
  <desc id="d">Bar chart of 6 Panamanian ATM operators showing per-withdrawal fees for Panama-issued vs foreign-issued cards.</desc>
  <rect width="720" height="498" fill="#FFFDF5"/>
  <text x="48" y="34" font-family="JetBrains Mono, monospace" font-size="10" fill="#C2452A" letter-spacing="1.6">ATM FEE · NON-CLIENT WITHDRAWAL</text>
  <text x="48" y="74" font-family="Fraunces, Georgia, serif" font-size="48" font-weight="500" fill="#0B2733" letter-spacing="-1">$0–6</text>
  <text x="48" y="100" font-family="Manrope, sans-serif" font-size="13" font-weight="500" fill="#3A4F58">ATM fee for non-clients per $300 USD withdrawal in Panama · 2026</text>
  <g font-family="Manrope, sans-serif">
        <text x="48" y="148" font-size="12" fill="#3A4F58">Banco General</text>
        <rect x="200" y="138" width="190" height="14" fill="#E86E4F" rx="3"/>
        <text x="396" y="148" font-family="JetBrains Mono, monospace" font-size="11" fill="#0B2733">$3</text>
        <rect x="200" y="156" width="380" height="14" fill="#0B2733" rx="3"/>
        <text x="586" y="166" font-family="JetBrains Mono, monospace" font-size="11" fill="#0B2733">$6</text>
        <text x="48" y="196" font-size="12" fill="#3A4F58">Banistmo</text>
        <rect x="200" y="186" width="253" height="14" fill="#E86E4F" rx="3"/>
        <text x="459" y="196" font-family="JetBrains Mono, monospace" font-size="11" fill="#0B2733">$4</text>
        <rect x="200" y="204" width="380" height="14" fill="#0B2733" rx="3"/>
        <text x="586" y="214" font-family="JetBrains Mono, monospace" font-size="11" fill="#0B2733">$6</text>
        <text x="48" y="244" font-size="12" fill="#3A4F58">Multibank</text>
        <rect x="200" y="234" width="316" height="14" fill="#E86E4F" rx="3"/>
        <text x="522" y="244" font-family="JetBrains Mono, monospace" font-size="11" fill="#0B2733">$5</text>
        <rect x="200" y="252" width="380" height="14" fill="#0B2733" rx="3"/>
        <text x="586" y="262" font-family="JetBrains Mono, monospace" font-size="11" fill="#0B2733">$6</text>
        <text x="48" y="292" font-size="12" fill="#3A4F58">BAC Credomatic</text>
        <rect x="200" y="282" width="190" height="14" fill="#E86E4F" rx="3"/>
        <text x="396" y="292" font-family="JetBrains Mono, monospace" font-size="11" fill="#0B2733">$3</text>
        <rect x="200" y="300" width="380" height="14" fill="#0B2733" rx="3"/>
        <text x="586" y="310" font-family="JetBrains Mono, monospace" font-size="11" fill="#0B2733">$6</text>
        <text x="48" y="340" font-size="12" fill="#3A4F58">Global Bank</text>
        <rect x="200" y="330" width="126" height="14" fill="#E86E4F" rx="3"/>
        <text x="332" y="340" font-family="JetBrains Mono, monospace" font-size="11" fill="#0B2733">$2</text>
        <rect x="200" y="348" width="380" height="14" fill="#0B2733" rx="3"/>
        <text x="586" y="358" font-family="JetBrains Mono, monospace" font-size="11" fill="#0B2733">$6</text>
        <text x="48" y="388" font-size="12" fill="#3A4F58">PriceSmart ATM</text>
        <rect x="200" y="378" width="8" height="14" fill="#E86E4F" rx="3"/>
        <text x="214" y="388" font-family="JetBrains Mono, monospace" font-size="11" fill="#0B2733">$0</text>
        <rect x="200" y="396" width="8" height="14" fill="#0B2733" rx="3"/>
        <text x="214" y="406" font-family="JetBrains Mono, monospace" font-size="11" fill="#0B2733">$0</text>
  </g>
  <g font-family="JetBrains Mono, monospace" font-size="10" letter-spacing="1.4">
    <rect x="48" y="454" width="10" height="10" fill="#E86E4F"/>
    <text x="64" y="463" fill="#0B2733">PANAMA CARD</text>
    <rect x="180" y="454" width="10" height="10" fill="#0B2733"/>
    <text x="196" y="463" fill="#0B2733">FOREIGN CARD</text>
  </g>
  <text x="672" y="463" font-family="JetBrains Mono, monospace" font-size="10" fill="#6F8089" text-anchor="end" letter-spacing="1">Source · Bank disclosures · Apr 2026</text>
</svg>