<?xml version="1.0" encoding="UTF-8"?>
<svg xmlns="http://www.w3.org/2000/svg" viewBox="0 0 720 540" role="img" aria-labelledby="t d">
  <title id="t">Best Panama beaches for expats 2026</title>
  <desc id="d">Heatmap of Panama beach regions rated by expats: Pedasí, Bocas, and San Blas tie at 5 stars; Coronado 4; Panama City 3.</desc>
  <rect width="720" height="540" fill="#FFFDF5"/>
  <text x="48" y="42" font-family="JetBrains Mono, monospace" font-size="10" fill="#C2452A" letter-spacing="1.6">BEACH RATING · EXPATS · 2026</text>
  <text x="48" y="80" font-family="Fraunces, Georgia, serif" font-size="32" font-weight="500" fill="#0B2733" letter-spacing="-0.5">Where expats hit the sand.</text>
  <g transform="translate(60, 130)">
    <path d="M 20,180 C 60,140 110,150 150,160 C 200,170 240,140 290,130 C 340,120 380,135 420,150 C 460,165 510,160 550,150 C 590,140 600,160 590,200 C 580,240 540,260 490,250 C 440,240 410,260 370,265 C 320,270 280,240 240,235 C 200,230 150,260 110,255 C 70,250 30,230 20,200 Z" fill="#F3E4C1" stroke="#0B2733" stroke-width="1.2" stroke-linejoin="round"/>
    
            <g>
              <ellipse cx="370" cy="248" rx="34" ry="22" fill="#E86E4F" opacity="0.95"/>
              <circle cx="370" cy="248" r="4" fill="#FFF9EC" stroke="#C2452A" stroke-width="2"/>
              <text x="370" y="297" font-family="Manrope, sans-serif" font-size="13" font-weight="700" fill="#0B2733" text-anchor="middle">Pedasí</text>
              <text x="370" y="313" font-family="JetBrains Mono, monospace" font-size="12" font-weight="500" fill="#C2452A" text-anchor="middle">★★★★★</text>
            </g>
            <g>
              <ellipse cx="80" cy="180" rx="38" ry="26" fill="#E86E4F" opacity="0.85"/>
              <circle cx="80" cy="180" r="3" fill="#0B2733"/>
              <text x="80" y="142" font-family="Manrope, sans-serif" font-size="11" font-weight="600" fill="#0B2733" text-anchor="middle">Bocas del Toro</text>
              <text x="80" y="156" font-family="JetBrains Mono, monospace" font-size="11" fill="#C2452A" text-anchor="middle">★★★★★</text>
            </g>
            <g>
              <ellipse cx="345" cy="180" rx="32" ry="22" fill="#E86E4F" opacity="0.65"/>
              <circle cx="345" cy="180" r="3" fill="#0B2733"/>
              <text x="345" y="142" font-family="Manrope, sans-serif" font-size="11" font-weight="600" fill="#0B2733" text-anchor="middle">Coronado</text>
              <text x="345" y="156" font-family="JetBrains Mono, monospace" font-size="11" fill="#C2452A" text-anchor="middle">★★★★</text>
            </g>
            <g>
              <ellipse cx="475" cy="195" rx="46" ry="28" fill="#E86E4F" opacity="0.4"/>
              <circle cx="475" cy="195" r="3" fill="#0B2733"/>
              <text x="475" y="157" font-family="Manrope, sans-serif" font-size="11" font-weight="600" fill="#0B2733" text-anchor="middle">Panama City</text>
              <text x="475" y="171" font-family="JetBrains Mono, monospace" font-size="11" fill="#C2452A" text-anchor="middle">★★★</text>
            </g>
            <g>
              <ellipse cx="555" cy="170" rx="32" ry="20" fill="#E86E4F" opacity="0.55"/>
              <circle cx="555" cy="170" r="3" fill="#0B2733"/>
              <text x="555" y="132" font-family="Manrope, sans-serif" font-size="11" font-weight="600" fill="#0B2733" text-anchor="middle">San Blas</text>
              <text x="555" y="146" font-family="JetBrains Mono, monospace" font-size="11" fill="#C2452A" text-anchor="middle">★★★★★</text>
            </g>
  </g>
  <g transform="translate(440, 478)">
    <text x="0" y="-6" font-family="JetBrains Mono, monospace" font-size="10" fill="#6F8089" letter-spacing="1.4">BEACH RATING</text>
    <rect x="0" y="0" width="40" height="12" fill="#E86E4F" opacity="0.18"/>
    <rect x="40" y="0" width="40" height="12" fill="#E86E4F" opacity="0.38"/>
    <rect x="80" y="0" width="40" height="12" fill="#E86E4F" opacity="0.55"/>
    <rect x="120" y="0" width="40" height="12" fill="#E86E4F" opacity="0.75"/>
    <rect x="160" y="0" width="40" height="12" fill="#E86E4F" opacity="0.95"/>
    <text x="0" y="28" font-family="JetBrains Mono, monospace" font-size="9" fill="#6F8089">3 stars</text>
    <text x="200" y="28" font-family="JetBrains Mono, monospace" font-size="9" fill="#6F8089" text-anchor="end">5 stars</text>
  </g>
  <text x="48" y="518" font-family="JetBrains Mono, monospace" font-size="10" fill="#6F8089" letter-spacing="1">Source · PRG expat beach panel · Apr 2026</text>
</svg>