<?xml version="1.0" encoding="UTF-8"?>
<svg xmlns="http://www.w3.org/2000/svg" viewBox="0 0 720 450" role="img" aria-labelledby="t d">
  <title id="t">Coronado real estate prices by project, 2026</title>
  <desc id="d">Bar chart comparing new-build vs resale price per m² across 5 active Coronado developments.</desc>
  <rect width="720" height="450" fill="#FFFDF5"/>
  <text x="48" y="34" font-family="JetBrains Mono, monospace" font-size="10" fill="#C2452A" letter-spacing="1.6">CORONADO PROJECTS · PRICE PER M²</text>
  <text x="48" y="74" font-family="Fraunces, Georgia, serif" font-size="48" font-weight="500" fill="#0B2733" letter-spacing="-1">$1,850</text>
  <text x="48" y="100" font-family="Manrope, sans-serif" font-size="13" font-weight="500" fill="#3A4F58">Median price per m² across active Coronado developments · 2026</text>
  <g font-family="Manrope, sans-serif">
        <text x="48" y="148" font-size="12" fill="#3A4F58">Buenaventura</text>
        <rect x="200" y="138" width="380" height="14" fill="#E86E4F" rx="3"/>
        <text x="586" y="148" font-family="JetBrains Mono, monospace" font-size="11" fill="#0B2733">$2,400</text>
        <rect x="200" y="156" width="348" height="14" fill="#0B2733" rx="3"/>
        <text x="554" y="166" font-family="JetBrains Mono, monospace" font-size="11" fill="#0B2733">$2,200</text>
        <text x="48" y="196" font-size="12" fill="#3A4F58">Santa María</text>
        <rect x="200" y="186" width="332" height="14" fill="#E86E4F" rx="3"/>
        <text x="538" y="196" font-family="JetBrains Mono, monospace" font-size="11" fill="#0B2733">$2,100</text>
        <rect x="200" y="204" width="308" height="14" fill="#0B2733" rx="3"/>
        <text x="514" y="214" font-family="JetBrains Mono, monospace" font-size="11" fill="#0B2733">$1,950</text>
        <text x="48" y="244" font-size="12" fill="#3A4F58">Vista Mar</text>
        <rect x="200" y="234" width="308" height="14" fill="#E86E4F" rx="3"/>
        <text x="514" y="244" font-family="JetBrains Mono, monospace" font-size="11" fill="#0B2733">$1,950</text>
        <rect x="200" y="252" width="285" height="14" fill="#0B2733" rx="3"/>
        <text x="491" y="262" font-family="JetBrains Mono, monospace" font-size="11" fill="#0B2733">$1,800</text>
        <text x="48" y="292" font-size="12" fill="#3A4F58">Coronado Bay</text>
        <rect x="200" y="282" width="277" height="14" fill="#E86E4F" rx="3"/>
        <text x="483" y="292" font-family="JetBrains Mono, monospace" font-size="11" fill="#0B2733">$1,750</text>
        <rect x="200" y="300" width="253" height="14" fill="#0B2733" rx="3"/>
        <text x="459" y="310" font-family="JetBrains Mono, monospace" font-size="11" fill="#0B2733">$1,600</text>
        <text x="48" y="340" font-size="12" fill="#3A4F58">Playa Blanca</text>
        <rect x="200" y="330" width="229" height="14" fill="#E86E4F" rx="3"/>
        <text x="435" y="340" font-family="JetBrains Mono, monospace" font-size="11" fill="#0B2733">$1,450</text>
        <rect x="200" y="348" width="213" height="14" fill="#0B2733" rx="3"/>
        <text x="419" y="358" font-family="JetBrains Mono, monospace" font-size="11" fill="#0B2733">$1,350</text>
  </g>
  <g font-family="JetBrains Mono, monospace" font-size="10" letter-spacing="1.4">
    <rect x="48" y="406" width="10" height="10" fill="#E86E4F"/>
    <text x="64" y="415" fill="#0B2733">NEW BUILD</text>
    <rect x="180" y="406" width="10" height="10" fill="#0B2733"/>
    <text x="196" y="415" fill="#0B2733">RESALE</text>
  </g>
  <text x="672" y="415" font-family="JetBrains Mono, monospace" font-size="10" fill="#6F8089" text-anchor="end" letter-spacing="1">Source · ACOBIR / direct developer ask · Apr 2026</text>
</svg>