<?xml version="1.0" encoding="UTF-8"?>
<svg xmlns="http://www.w3.org/2000/svg" viewBox="0 0 720 498" role="img" aria-labelledby="t d">
  <title id="t">Cost of living: Panama vs U.S. average, 2026</title>
  <desc id="d">Bar chart showing 6 monthly expense categories. Panama City costs roughly half the U.S. average across rent, groceries, utilities, healthcare, transit, and dining.</desc>
  <rect width="720" height="498" fill="#FFFDF5"/>
  <text x="48" y="34" font-family="JetBrains Mono, monospace" font-size="10" fill="#C2452A" letter-spacing="1.6">PANAMA CITY · 56% LOWER</text>
  <text x="48" y="74" font-family="Fraunces, Georgia, serif" font-size="48" font-weight="500" fill="#0B2733" letter-spacing="-1">$1,840</text>
  <text x="48" y="100" font-family="Manrope, sans-serif" font-size="13" font-weight="500" fill="#3A4F58">Monthly cost of living, Panama City vs U.S. average · 2026</text>
  <g font-family="Manrope, sans-serif">
        <text x="48" y="148" font-size="12" fill="#3A4F58">Rent · 1BR center</text>
        <rect x="200" y="138" width="174" height="14" fill="#E86E4F" rx="3"/>
        <text x="380" y="148" font-family="JetBrains Mono, monospace" font-size="11" fill="#0B2733">$1,100</text>
        <rect x="200" y="156" width="380" height="14" fill="#0B2733" rx="3"/>
        <text x="586" y="166" font-family="JetBrains Mono, monospace" font-size="11" fill="#0B2733">$2,400</text>
        <text x="48" y="196" font-size="12" fill="#3A4F58">Groceries · monthly</text>
        <rect x="200" y="186" width="50" height="14" fill="#E86E4F" rx="3"/>
        <text x="256" y="196" font-family="JetBrains Mono, monospace" font-size="11" fill="#0B2733">$320</text>
        <rect x="200" y="204" width="91" height="14" fill="#0B2733" rx="3"/>
        <text x="297" y="214" font-family="JetBrains Mono, monospace" font-size="11" fill="#0B2733">$580</text>
        <text x="48" y="244" font-size="12" fill="#3A4F58">Utilities · 85m²</text>
        <rect x="200" y="234" width="17" height="14" fill="#E86E4F" rx="3"/>
        <text x="223" y="244" font-family="JetBrains Mono, monospace" font-size="11" fill="#0B2733">$110</text>
        <rect x="200" y="252" width="33" height="14" fill="#0B2733" rx="3"/>
        <text x="239" y="262" font-family="JetBrains Mono, monospace" font-size="11" fill="#0B2733">$210</text>
        <text x="48" y="292" font-size="12" fill="#3A4F58">Healthcare · individual</text>
        <rect x="200" y="282" width="22" height="14" fill="#E86E4F" rx="3"/>
        <text x="228" y="292" font-family="JetBrains Mono, monospace" font-size="11" fill="#0B2733">$140</text>
        <rect x="200" y="300" width="76" height="14" fill="#0B2733" rx="3"/>
        <text x="282" y="310" font-family="JetBrains Mono, monospace" font-size="11" fill="#0B2733">$480</text>
        <text x="48" y="340" font-size="12" fill="#3A4F58">Transit · monthly</text>
        <rect x="200" y="330" width="9" height="14" fill="#E86E4F" rx="3"/>
        <text x="215" y="340" font-family="JetBrains Mono, monospace" font-size="11" fill="#0B2733">$60</text>
        <rect x="200" y="348" width="19" height="14" fill="#0B2733" rx="3"/>
        <text x="225" y="358" font-family="JetBrains Mono, monospace" font-size="11" fill="#0B2733">$120</text>
        <text x="48" y="388" font-size="12" fill="#3A4F58">Dining · couple, 12×</text>
        <rect x="200" y="378" width="33" height="14" fill="#E86E4F" rx="3"/>
        <text x="239" y="388" font-family="JetBrains Mono, monospace" font-size="11" fill="#0B2733">$210</text>
        <rect x="200" y="396" width="66" height="14" fill="#0B2733" rx="3"/>
        <text x="272" y="406" font-family="JetBrains Mono, monospace" font-size="11" fill="#0B2733">$420</text>
  </g>
  <g font-family="JetBrains Mono, monospace" font-size="10" letter-spacing="1.4">
    <rect x="48" y="454" width="10" height="10" fill="#E86E4F"/>
    <text x="64" y="463" fill="#0B2733">PANAMA CITY</text>
    <rect x="180" y="454" width="10" height="10" fill="#0B2733"/>
    <text x="196" y="463" fill="#0B2733">U.S. AVG</text>
  </g>
  <text x="672" y="463" font-family="JetBrains Mono, monospace" font-size="10" fill="#6F8089" text-anchor="end" letter-spacing="1">Source · VIP Expats / Numbeo · Apr 2026</text>
</svg>