<?xml version="1.0" encoding="UTF-8"?>
<svg xmlns="http://www.w3.org/2000/svg" viewBox="0 0 720 400" role="img" aria-labelledby="t d">
  <title id="t">Panama Friendly Nations Visa approvals 2018-2026</title>
  <desc id="d">Time-series line of annual Friendly Nations Visa approvals climbing from 3,200 in 2018 to 9,900 in 2026, with a callout at the 2021 post-reform inflection.</desc>
  <rect width="720" height="400" fill="#FFFDF5"/>
  <text x="48" y="38" font-family="JetBrains Mono, monospace" font-size="10" fill="#C2452A" letter-spacing="1.6">FRIENDLY NATIONS · APPROVALS</text>
  <text x="48" y="76" font-family="Fraunces, Georgia, serif" font-size="40" font-weight="500" fill="#0B2733" letter-spacing="-0.6">+22% YoY</text>
  <text x="48" y="98" font-family="Manrope, sans-serif" font-size="13" fill="#3A4F58">Friendly Nations Visa approvals · 2018 → 2026</text>
  <g font-family="JetBrains Mono, monospace" font-size="10" fill="#6F8089" letter-spacing="1"><line x1="80" y1="160" x2="680" y2="160" stroke="#E8DECC"/>
<text x="64" y="164" text-anchor="end">10,395</text>
<line x1="80" y1="220" x2="680" y2="220" stroke="#E8DECC"/>
<text x="64" y="224" text-anchor="end">7,636</text>
<line x1="80" y1="280" x2="680" y2="280" stroke="#E8DECC"/>
<text x="64" y="284" text-anchor="end">4,958</text>
<line x1="80" y1="340" x2="680" y2="340" stroke="#E8DECC"/>
<text x="64" y="344" text-anchor="end">2,280</text>
</g>
  <g font-family="JetBrains Mono, monospace" font-size="10" fill="#6F8089" letter-spacing="1"><text x="80" y="362" text-anchor="middle">2018</text>
<text x="155" y="362" text-anchor="middle">2019</text>
<text x="230" y="362" text-anchor="middle">2020</text>
<text x="305" y="362" text-anchor="middle">2021</text>
<text x="380" y="362" text-anchor="middle">2022</text>
<text x="455" y="362" text-anchor="middle">2023</text>
<text x="530" y="362" text-anchor="middle">2024</text>
<text x="605" y="362" text-anchor="middle">2025</text>
<text x="680" y="362" text-anchor="middle">2026</text>
</g>
  
  <polyline points="80,320 155,306 230,337 305,289 380,262 455,238 530,226 605,211 680,171" fill="none" stroke="#E86E4F" stroke-width="2.5" stroke-linejoin="round"/>
  <g fill="#E86E4F"><circle cx="80" cy="320" r="3.5"/>
<circle cx="155" cy="306" r="3.5"/>
<circle cx="230" cy="337" r="3.5"/>
<circle cx="305" cy="289" r="5" stroke="#FFFDF5" stroke-width="2"/>
<circle cx="380" cy="262" r="3.5"/>
<circle cx="455" cy="238" r="3.5"/>
<circle cx="530" cy="226" r="3.5"/>
<circle cx="605" cy="211" r="3.5"/>
<circle cx="680" cy="171" r="3.5"/>
</g>
  
        <line x1="305" y1="278.53974121996305" x2="305" y2="230.53974121996305" stroke="#C2452A" stroke-width="1"/>
        <rect x="233" y="208.53974121996305" width="144" height="22" fill="#C2452A" rx="2"/>
        <text x="310" y="223.53974121996305" font-family="JetBrains Mono, monospace" font-size="11" font-weight="500" fill="#FFF9EC" text-anchor="middle" letter-spacing="0.6">2021 · post-reform</text>
  <text x="688" y="171" font-family="JetBrains Mono, monospace" font-size="11" font-weight="500" fill="#C2452A">9,900</text>
  <g font-family="JetBrains Mono, monospace" font-size="10" letter-spacing="1.4"><line x1="48" y1="386" x2="68" y2="386" stroke="#E86E4F" stroke-width="2.5"/><text x="74" y="389" fill="#0B2733">APPROVALS</text></g>
  <text x="680" y="389" font-family="JetBrains Mono, monospace" font-size="10" fill="#6F8089" text-anchor="end" letter-spacing="1">Source · Servicio Nacional de Migración · Apr 2026</text>
</svg>