<?xml version="1.0" encoding="UTF-8"?>
<svg xmlns="http://www.w3.org/2000/svg" viewBox="0 0 720 450" role="img" aria-labelledby="t d">
  <title id="t">Panama internet provider pricing for 500 Mbps fiber 2026</title>
  <desc id="d">Bar chart of 5 Panamanian internet providers showing standard and promotional pricing for 500 Mbps fiber service.</desc>
  <rect width="720" height="450" fill="#FFFDF5"/>
  <text x="48" y="34" font-family="JetBrains Mono, monospace" font-size="10" fill="#C2452A" letter-spacing="1.6">FIBER · 500 MBPS · MONTHLY</text>
  <text x="48" y="74" font-family="Fraunces, Georgia, serif" font-size="48" font-weight="500" fill="#0B2733" letter-spacing="-1">$45</text>
  <text x="48" y="100" font-family="Manrope, sans-serif" font-size="13" font-weight="500" fill="#3A4F58">Monthly cost for 500 Mbps fiber by Panama ISP · 2026</text>
  <g font-family="Manrope, sans-serif">
        <text x="48" y="148" font-size="12" fill="#3A4F58">Cable Onda</text>
        <rect x="200" y="138" width="155" height="14" fill="#E86E4F" rx="3"/>
        <text x="361" y="148" font-family="JetBrains Mono, monospace" font-size="11" fill="#0B2733">$45</text>
        <rect x="200" y="156" width="120" height="14" fill="#0B2733" rx="3"/>
        <text x="326" y="166" font-family="JetBrains Mono, monospace" font-size="11" fill="#0B2733">$35</text>
        <text x="48" y="196" font-size="12" fill="#3A4F58">Más Móvil Hogar</text>
        <rect x="200" y="186" width="179" height="14" fill="#E86E4F" rx="3"/>
        <text x="385" y="196" font-family="JetBrains Mono, monospace" font-size="11" fill="#0B2733">$52</text>
        <rect x="200" y="204" width="145" height="14" fill="#0B2733" rx="3"/>
        <text x="351" y="214" font-family="JetBrains Mono, monospace" font-size="11" fill="#0B2733">$42</text>
        <text x="48" y="244" font-size="12" fill="#3A4F58">Tigo Fibra</text>
        <rect x="200" y="234" width="165" height="14" fill="#E86E4F" rx="3"/>
        <text x="371" y="244" font-family="JetBrains Mono, monospace" font-size="11" fill="#0B2733">$48</text>
        <rect x="200" y="252" width="131" height="14" fill="#0B2733" rx="3"/>
        <text x="337" y="262" font-family="JetBrains Mono, monospace" font-size="11" fill="#0B2733">$38</text>
        <text x="48" y="292" font-size="12" fill="#3A4F58">Claro Fibra</text>
        <rect x="200" y="282" width="172" height="14" fill="#E86E4F" rx="3"/>
        <text x="378" y="292" font-family="JetBrains Mono, monospace" font-size="11" fill="#0B2733">$50</text>
        <rect x="200" y="300" width="138" height="14" fill="#0B2733" rx="3"/>
        <text x="344" y="310" font-family="JetBrains Mono, monospace" font-size="11" fill="#0B2733">$40</text>
        <text x="48" y="340" font-size="12" fill="#3A4F58">Starlink</text>
        <rect x="200" y="330" width="380" height="14" fill="#E86E4F" rx="3"/>
        <text x="586" y="340" font-family="JetBrains Mono, monospace" font-size="11" fill="#0B2733">$110</text>
        <rect x="200" y="348" width="342" height="14" fill="#0B2733" rx="3"/>
        <text x="548" y="358" font-family="JetBrains Mono, monospace" font-size="11" fill="#0B2733">$99</text>
  </g>
  <g font-family="JetBrains Mono, monospace" font-size="10" letter-spacing="1.4">
    <rect x="48" y="406" width="10" height="10" fill="#E86E4F"/>
    <text x="64" y="415" fill="#0B2733">STANDARD</text>
    <rect x="180" y="406" width="10" height="10" fill="#0B2733"/>
    <text x="196" y="415" fill="#0B2733">PROMOTION</text>
  </g>
  <text x="672" y="415" font-family="JetBrains Mono, monospace" font-size="10" fill="#6F8089" text-anchor="end" letter-spacing="1">Source · ISP disclosures · Apr 2026</text>
</svg>