<?xml version="1.0" encoding="UTF-8"?>
<svg xmlns="http://www.w3.org/2000/svg" viewBox="0 0 720 498" role="img" aria-labelledby="t d">
  <title id="t">Panama effective tax rate by income type for foreigners</title>
  <desc id="d">Bar chart comparing Panama vs U.S. effective tax rates across foreign income, local salary, dividends, capital gains, property, and inheritance.</desc>
  <rect width="720" height="498" fill="#FFFDF5"/>
  <text x="48" y="34" font-family="JetBrains Mono, monospace" font-size="10" fill="#C2452A" letter-spacing="1.6">EFFECTIVE TAX RATE · FOREIGNER · 2026</text>
  <text x="48" y="74" font-family="Fraunces, Georgia, serif" font-size="48" font-weight="500" fill="#0B2733" letter-spacing="-1">0–10%</text>
  <text x="48" y="100" font-family="Manrope, sans-serif" font-size="13" font-weight="500" fill="#3A4F58">Effective Panama tax rate by income source for resident foreigners</text>
  <g font-family="Manrope, sans-serif">
        <text x="48" y="148" font-size="12" fill="#3A4F58">Foreign-source income</text>
        <rect x="200" y="138" width="8" height="14" fill="#E86E4F" rx="3"/>
        <text x="214" y="148" font-family="JetBrains Mono, monospace" font-size="11" fill="#0B2733">0</text>
        <rect x="200" y="156" width="8" height="14" fill="#0B2733" rx="3"/>
        <text x="214" y="166" font-family="JetBrains Mono, monospace" font-size="11" fill="#0B2733">0</text>
        <text x="48" y="196" font-size="12" fill="#3A4F58">Local salary</text>
        <rect x="200" y="186" width="190" height="14" fill="#E86E4F" rx="3"/>
        <text x="396" y="196" font-family="JetBrains Mono, monospace" font-size="11" fill="#0B2733">5</text>
        <rect x="200" y="204" width="380" height="14" fill="#0B2733" rx="3"/>
        <text x="586" y="214" font-family="JetBrains Mono, monospace" font-size="11" fill="#0B2733">10</text>
        <text x="48" y="244" font-size="12" fill="#3A4F58">Dividends (local)</text>
        <rect x="200" y="234" width="380" height="14" fill="#E86E4F" rx="3"/>
        <text x="586" y="244" font-family="JetBrains Mono, monospace" font-size="11" fill="#0B2733">10</text>
        <rect x="200" y="252" width="380" height="14" fill="#0B2733" rx="3"/>
        <text x="586" y="262" font-family="JetBrains Mono, monospace" font-size="11" fill="#0B2733">10</text>
        <text x="48" y="292" font-size="12" fill="#3A4F58">Cap gains (RE)</text>
        <rect x="200" y="282" width="380" height="14" fill="#E86E4F" rx="3"/>
        <text x="586" y="292" font-family="JetBrains Mono, monospace" font-size="11" fill="#0B2733">10</text>
        <rect x="200" y="300" width="380" height="14" fill="#0B2733" rx="3"/>
        <text x="586" y="310" font-family="JetBrains Mono, monospace" font-size="11" fill="#0B2733">10</text>
        <text x="48" y="340" font-size="12" fill="#3A4F58">Property (primary)</text>
        <rect x="200" y="330" width="38" height="14" fill="#E86E4F" rx="3"/>
        <text x="244" y="340" font-family="JetBrains Mono, monospace" font-size="11" fill="#0B2733">1</text>
        <rect x="200" y="348" width="38" height="14" fill="#0B2733" rx="3"/>
        <text x="244" y="358" font-family="JetBrains Mono, monospace" font-size="11" fill="#0B2733">1</text>
        <text x="48" y="388" font-size="12" fill="#3A4F58">Inheritance</text>
        <rect x="200" y="378" width="8" height="14" fill="#E86E4F" rx="3"/>
        <text x="214" y="388" font-family="JetBrains Mono, monospace" font-size="11" fill="#0B2733">0</text>
        <rect x="200" y="396" width="8" height="14" fill="#0B2733" rx="3"/>
        <text x="214" y="406" font-family="JetBrains Mono, monospace" font-size="11" fill="#0B2733">0</text>
  </g>
  <g font-family="JetBrains Mono, monospace" font-size="10" letter-spacing="1.4">
    <rect x="48" y="454" width="10" height="10" fill="#E86E4F"/>
    <text x="64" y="463" fill="#0B2733">PANAMA</text>
    <rect x="180" y="454" width="10" height="10" fill="#0B2733"/>
    <text x="196" y="463" fill="#0B2733">U.S. (compare)</text>
  </g>
  <text x="672" y="463" font-family="JetBrains Mono, monospace" font-size="10" fill="#6F8089" text-anchor="end" letter-spacing="1">Source · DGI / IRS / Apr 2026</text>
</svg>