<?xml version="1.0" encoding="UTF-8"?>
<svg xmlns="http://www.w3.org/2000/svg" viewBox="0 0 720 402" role="img" aria-labelledby="t d">
  <title id="t">Panama SIM card prepaid plan cost by carrier 2026</title>
  <desc id="d">Bar chart of 4 Panamanian carriers comparing 5GB and unlimited prepaid plan pricing for 30 days.</desc>
  <rect width="720" height="402" fill="#FFFDF5"/>
  <text x="48" y="34" font-family="JetBrains Mono, monospace" font-size="10" fill="#C2452A" letter-spacing="1.6">PREPAID SIM · 30 DAYS · 2026</text>
  <text x="48" y="74" font-family="Fraunces, Georgia, serif" font-size="48" font-weight="500" fill="#0B2733" letter-spacing="-1">$15</text>
  <text x="48" y="100" font-family="Manrope, sans-serif" font-size="13" font-weight="500" fill="#3A4F58">Monthly prepaid plan cost by Panama carrier · 30 days · 2026</text>
  <g font-family="Manrope, sans-serif">
        <text x="48" y="148" font-size="12" fill="#3A4F58">Más Móvil</text>
        <rect x="200" y="138" width="203" height="14" fill="#E86E4F" rx="3"/>
        <text x="409" y="148" font-family="JetBrains Mono, monospace" font-size="11" fill="#0B2733">$15</text>
        <rect x="200" y="156" width="339" height="14" fill="#0B2733" rx="3"/>
        <text x="545" y="166" font-family="JetBrains Mono, monospace" font-size="11" fill="#0B2733">$25</text>
        <text x="48" y="196" font-size="12" fill="#3A4F58">Tigo</text>
        <rect x="200" y="186" width="244" height="14" fill="#E86E4F" rx="3"/>
        <text x="450" y="196" font-family="JetBrains Mono, monospace" font-size="11" fill="#0B2733">$18</text>
        <rect x="200" y="204" width="380" height="14" fill="#0B2733" rx="3"/>
        <text x="586" y="214" font-family="JetBrains Mono, monospace" font-size="11" fill="#0B2733">$28</text>
        <text x="48" y="244" font-size="12" fill="#3A4F58">Claro</text>
        <rect x="200" y="234" width="230" height="14" fill="#E86E4F" rx="3"/>
        <text x="436" y="244" font-family="JetBrains Mono, monospace" font-size="11" fill="#0B2733">$17</text>
        <rect x="200" y="252" width="366" height="14" fill="#0B2733" rx="3"/>
        <text x="572" y="262" font-family="JetBrains Mono, monospace" font-size="11" fill="#0B2733">$27</text>
        <text x="48" y="292" font-size="12" fill="#3A4F58">Digicel</text>
        <rect x="200" y="282" width="190" height="14" fill="#E86E4F" rx="3"/>
        <text x="396" y="292" font-family="JetBrains Mono, monospace" font-size="11" fill="#0B2733">$14</text>
        <rect x="200" y="300" width="298" height="14" fill="#0B2733" rx="3"/>
        <text x="504" y="310" font-family="JetBrains Mono, monospace" font-size="11" fill="#0B2733">$22</text>
  </g>
  <g font-family="JetBrains Mono, monospace" font-size="10" letter-spacing="1.4">
    <rect x="48" y="358" width="10" height="10" fill="#E86E4F"/>
    <text x="64" y="367" fill="#0B2733">5GB</text>
    <rect x="180" y="358" width="10" height="10" fill="#0B2733"/>
    <text x="196" y="367" fill="#0B2733">UNLIMITED</text>
  </g>
  <text x="672" y="367" font-family="JetBrains Mono, monospace" font-size="10" fill="#6F8089" text-anchor="end" letter-spacing="1">Source · Carrier websites · Apr 2026</text>
</svg>