<?xml version="1.0" encoding="UTF-8"?>
<svg xmlns="http://www.w3.org/2000/svg" viewBox="0 0 720 498" role="img" aria-labelledby="t d">
  <title id="t">Coastal inventory year-over-year compression by region</title>
  <desc id="d">Bar chart showing inventory compression by coastal market. Bocas leads at -52%, Coronado -44%, down to Volcán at -6%.</desc>
  <rect width="720" height="498" fill="#FFFDF5"/>
  <text x="48" y="34" font-family="JetBrains Mono, monospace" font-size="10" fill="#C2452A" letter-spacing="1.6">COASTAL INVENTORY COMPRESSION · YoY</text>
  <text x="48" y="74" font-family="Fraunces, Georgia, serif" font-size="48" font-weight="500" fill="#0B2733" letter-spacing="-1">-38%</text>
  <text x="48" y="100" font-family="Manrope, sans-serif" font-size="13" font-weight="500" fill="#3A4F58">Listings down across Panama coastal markets · Q4 2025 vs Q4 2024</text>
  <g font-family="Manrope, sans-serif">
        <text x="48" y="148" font-size="12" fill="#3A4F58">Bocas del Toro</text>
        <rect x="200" y="138" width="380" height="14" fill="#E86E4F" rx="3"/>
        <text x="586" y="148" font-family="JetBrains Mono, monospace" font-size="11" fill="#0B2733">52</text>
        <rect x="200" y="156" width="8" height="14" fill="#0B2733" rx="3"/>
        <text x="214" y="166" font-family="JetBrains Mono, monospace" font-size="11" fill="#0B2733">0</text>
        <text x="48" y="196" font-size="12" fill="#3A4F58">Coronado strip</text>
        <rect x="200" y="186" width="321" height="14" fill="#E86E4F" rx="3"/>
        <text x="527" y="196" font-family="JetBrains Mono, monospace" font-size="11" fill="#0B2733">44</text>
        <rect x="200" y="204" width="8" height="14" fill="#0B2733" rx="3"/>
        <text x="214" y="214" font-family="JetBrains Mono, monospace" font-size="11" fill="#0B2733">0</text>
        <text x="48" y="244" font-size="12" fill="#3A4F58">Casco Viejo</text>
        <rect x="200" y="234" width="277" height="14" fill="#E86E4F" rx="3"/>
        <text x="483" y="244" font-family="JetBrains Mono, monospace" font-size="11" fill="#0B2733">38</text>
        <rect x="200" y="252" width="8" height="14" fill="#0B2733" rx="3"/>
        <text x="214" y="262" font-family="JetBrains Mono, monospace" font-size="11" fill="#0B2733">0</text>
        <text x="48" y="292" font-size="12" fill="#3A4F58">Pedasí / Azuero</text>
        <rect x="200" y="282" width="160" height="14" fill="#E86E4F" rx="3"/>
        <text x="366" y="292" font-family="JetBrains Mono, monospace" font-size="11" fill="#0B2733">22</text>
        <rect x="200" y="300" width="8" height="14" fill="#0B2733" rx="3"/>
        <text x="214" y="310" font-family="JetBrains Mono, monospace" font-size="11" fill="#0B2733">0</text>
        <text x="48" y="340" font-size="12" fill="#3A4F58">Boquete highlands</text>
        <rect x="200" y="330" width="87" height="14" fill="#E86E4F" rx="3"/>
        <text x="293" y="340" font-family="JetBrains Mono, monospace" font-size="11" fill="#0B2733">12</text>
        <rect x="200" y="348" width="8" height="14" fill="#0B2733" rx="3"/>
        <text x="214" y="358" font-family="JetBrains Mono, monospace" font-size="11" fill="#0B2733">0</text>
        <text x="48" y="388" font-size="12" fill="#3A4F58">Volcán</text>
        <rect x="200" y="378" width="43" height="14" fill="#E86E4F" rx="3"/>
        <text x="249" y="388" font-family="JetBrains Mono, monospace" font-size="11" fill="#0B2733">6</text>
        <rect x="200" y="396" width="8" height="14" fill="#0B2733" rx="3"/>
        <text x="214" y="406" font-family="JetBrains Mono, monospace" font-size="11" fill="#0B2733">0</text>
  </g>
  <g font-family="JetBrains Mono, monospace" font-size="10" letter-spacing="1.4">
    <rect x="48" y="454" width="10" height="10" fill="#E86E4F"/>
    <text x="64" y="463" fill="#0B2733">2025 vs 2024</text>
    <rect x="180" y="454" width="10" height="10" fill="#0B2733"/>
    <text x="196" y="463" fill="#0B2733">2024 baseline</text>
  </g>
  <text x="672" y="463" font-family="JetBrains Mono, monospace" font-size="10" fill="#6F8089" text-anchor="end" letter-spacing="1">Source · ACOBIR notarized data · Q4 2025</text>
</svg>