<?xml version="1.0" encoding="UTF-8"?>
<svg xmlns="http://www.w3.org/2000/svg" viewBox="0 0 720 498" role="img" aria-labelledby="t d">
  <title id="t">Healthcare cost: Panama vs U.S., 2026</title>
  <desc id="d">Bar chart comparing 6 healthcare cost categories: Panama costs 65–80 percent less across consultations, prescriptions, imaging, insurance, and dental.</desc>
  <rect width="720" height="498" fill="#FFFDF5"/>
  <text x="48" y="34" font-family="JetBrains Mono, monospace" font-size="10" fill="#C2452A" letter-spacing="1.6">HEALTHCARE COST · INDIVIDUAL · 2026</text>
  <text x="48" y="74" font-family="Fraunces, Georgia, serif" font-size="48" font-weight="500" fill="#0B2733" letter-spacing="-1">$140</text>
  <text x="48" y="100" font-family="Manrope, sans-serif" font-size="13" font-weight="500" fill="#3A4F58">Monthly out-of-pocket healthcare cost · Panama vs U.S. · 2026</text>
  <g font-family="Manrope, sans-serif">
        <text x="48" y="148" font-size="12" fill="#3A4F58">Doctor visit</text>
        <rect x="200" y="138" width="10" height="14" fill="#E86E4F" rx="3"/>
        <text x="216" y="148" font-family="JetBrains Mono, monospace" font-size="11" fill="#0B2733">$40</text>
        <rect x="200" y="156" width="40" height="14" fill="#0B2733" rx="3"/>
        <text x="246" y="166" font-family="JetBrains Mono, monospace" font-size="11" fill="#0B2733">$150</text>
        <text x="48" y="196" font-size="12" fill="#3A4F58">Specialist consult</text>
        <rect x="200" y="186" width="21" height="14" fill="#E86E4F" rx="3"/>
        <text x="227" y="196" font-family="JetBrains Mono, monospace" font-size="11" fill="#0B2733">$80</text>
        <rect x="200" y="204" width="76" height="14" fill="#0B2733" rx="3"/>
        <text x="282" y="214" font-family="JetBrains Mono, monospace" font-size="11" fill="#0B2733">$280</text>
        <text x="48" y="244" font-size="12" fill="#3A4F58">Generic prescription</text>
        <rect x="200" y="234" width="8" height="14" fill="#E86E4F" rx="3"/>
        <text x="214" y="244" font-family="JetBrains Mono, monospace" font-size="11" fill="#0B2733">$12</text>
        <rect x="200" y="252" width="12" height="14" fill="#0B2733" rx="3"/>
        <text x="218" y="262" font-family="JetBrains Mono, monospace" font-size="11" fill="#0B2733">$45</text>
        <text x="48" y="292" font-size="12" fill="#3A4F58">MRI scan</text>
        <rect x="200" y="282" width="95" height="14" fill="#E86E4F" rx="3"/>
        <text x="301" y="292" font-family="JetBrains Mono, monospace" font-size="11" fill="#0B2733">$350</text>
        <rect x="200" y="300" width="380" height="14" fill="#0B2733" rx="3"/>
        <text x="586" y="310" font-family="JetBrains Mono, monospace" font-size="11" fill="#0B2733">$1,400</text>
        <text x="48" y="340" font-size="12" fill="#3A4F58">Private insurance · 50yo</text>
        <rect x="200" y="330" width="32" height="14" fill="#E86E4F" rx="3"/>
        <text x="238" y="340" font-family="JetBrains Mono, monospace" font-size="11" fill="#0B2733">$120</text>
        <rect x="200" y="348" width="168" height="14" fill="#0B2733" rx="3"/>
        <text x="374" y="358" font-family="JetBrains Mono, monospace" font-size="11" fill="#0B2733">$620</text>
        <text x="48" y="388" font-size="12" fill="#3A4F58">Dental cleaning</text>
        <rect x="200" y="378" width="9" height="14" fill="#E86E4F" rx="3"/>
        <text x="215" y="388" font-family="JetBrains Mono, monospace" font-size="11" fill="#0B2733">$35</text>
        <rect x="200" y="396" width="38" height="14" fill="#0B2733" rx="3"/>
        <text x="244" y="406" font-family="JetBrains Mono, monospace" font-size="11" fill="#0B2733">$140</text>
  </g>
  <g font-family="JetBrains Mono, monospace" font-size="10" letter-spacing="1.4">
    <rect x="48" y="454" width="10" height="10" fill="#E86E4F"/>
    <text x="64" y="463" fill="#0B2733">PANAMA</text>
    <rect x="180" y="454" width="10" height="10" fill="#0B2733"/>
    <text x="196" y="463" fill="#0B2733">U.S.</text>
  </g>
  <text x="672" y="463" font-family="JetBrains Mono, monospace" font-size="10" fill="#6F8089" text-anchor="end" letter-spacing="1">Source · Hospital Punta Pacifica / KFF · Apr 2026</text>
</svg>