<?xml version="1.0" encoding="UTF-8"?>
<svg xmlns="http://www.w3.org/2000/svg" viewBox="0 0 720 400" role="img" aria-labelledby="t d">
  <title id="t">Panama real estate index vs Costa Rica 2018-2026</title>
  <desc id="d">Time-series indexing Panama coastal prices growing 82% from 2018 to 2026, outpacing Costa Rica Nicoya at 24%.</desc>
  <rect width="720" height="400" fill="#FFFDF5"/>
  <text x="48" y="38" font-family="JetBrains Mono, monospace" font-size="10" fill="#C2452A" letter-spacing="1.6">PANAMA REAL ESTATE · INDEX</text>
  <text x="48" y="76" font-family="Fraunces, Georgia, serif" font-size="40" font-weight="500" fill="#0B2733" letter-spacing="-0.6">+82%</text>
  <text x="48" y="98" font-family="Manrope, sans-serif" font-size="13" fill="#3A4F58">Indexed Panama price per m² · 2018 = 100 · all coastal</text>
  <g font-family="JetBrains Mono, monospace" font-size="10" fill="#6F8089" letter-spacing="1"><line x1="80" y1="160" x2="680" y2="160" stroke="#E8DECC"/>
<text x="64" y="164" text-anchor="end">191</text>
<line x1="80" y1="220" x2="680" y2="220" stroke="#E8DECC"/>
<text x="64" y="224" text-anchor="end">158</text>
<line x1="80" y1="280" x2="680" y2="280" stroke="#E8DECC"/>
<text x="64" y="284" text-anchor="end">125</text>
<line x1="80" y1="340" x2="680" y2="340" stroke="#E8DECC"/>
<text x="64" y="344" text-anchor="end">93</text>
</g>
  <g font-family="JetBrains Mono, monospace" font-size="10" fill="#6F8089" letter-spacing="1"><text x="80" y="362" text-anchor="middle">2018</text>
<text x="155" y="362" text-anchor="middle">2019</text>
<text x="230" y="362" text-anchor="middle">2020</text>
<text x="305" y="362" text-anchor="middle">2021</text>
<text x="380" y="362" text-anchor="middle">2022</text>
<text x="455" y="362" text-anchor="middle">2023</text>
<text x="530" y="362" text-anchor="middle">2024</text>
<text x="605" y="362" text-anchor="middle">2025</text>
<text x="680" y="362" text-anchor="middle">2026</text>
</g>
  <polyline points="80,327 155,322 230,329 305,320 380,311 455,303 530,294 605,287 680,283" fill="none" stroke="#0B2733" stroke-width="1.5" stroke-dasharray="3 4"/>
  <polyline points="80,327 155,320 230,331 305,313 380,294 455,276 530,235 605,199 680,177" fill="none" stroke="#E86E4F" stroke-width="2.5" stroke-linejoin="round"/>
  <g fill="#E86E4F"><circle cx="80" cy="327" r="3.5"/>
<circle cx="155" cy="320" r="3.5"/>
<circle cx="230" cy="331" r="3.5"/>
<circle cx="305" cy="313" r="3.5"/>
<circle cx="380" cy="294" r="3.5"/>
<circle cx="455" cy="276" r="3.5"/>
<circle cx="530" cy="235" r="5" stroke="#FFFDF5" stroke-width="2"/>
<circle cx="605" cy="199" r="3.5"/>
<circle cx="680" cy="177" r="3.5"/>
</g>
  
        <line x1="530" y1="225.48979591836735" x2="530" y2="177.48979591836735" stroke="#C2452A" stroke-width="1"/>
        <rect x="470" y="155.48979591836735" width="120" height="22" fill="#C2452A" rx="2"/>
        <text x="535" y="170.48979591836735" font-family="JetBrains Mono, monospace" font-size="11" font-weight="500" fill="#FFF9EC" text-anchor="middle" letter-spacing="0.6">+17% YoY · 2024</text>
  <text x="688" y="177" font-family="JetBrains Mono, monospace" font-size="11" font-weight="500" fill="#C2452A">182</text>
<text x="688" y="283" font-family="JetBrains Mono, monospace" font-size="11" fill="#0B2733">124</text>
  <g font-family="JetBrains Mono, monospace" font-size="10" letter-spacing="1.4"><line x1="48" y1="386" x2="68" y2="386" stroke="#E86E4F" stroke-width="2.5"/><text x="74" y="389" fill="#0B2733">PANAMA COASTAL</text><line x1="160" y1="386" x2="180" y2="386" stroke="#0B2733" stroke-width="1.5" stroke-dasharray="3 4"/><text x="186" y="389" fill="#0B2733">COSTA RICA NICOYA</text></g>
  <text x="680" y="389" font-family="JetBrains Mono, monospace" font-size="10" fill="#6F8089" text-anchor="end" letter-spacing="1">Source · ACOBIR / Costa Rica CCBR · Apr 2026</text>
</svg>