<?xml version="1.0" encoding="UTF-8"?>
<svg xmlns="http://www.w3.org/2000/svg" viewBox="0 0 720 400" role="img" aria-labelledby="t d">
  <title id="t">Panama monthly temperature by region</title>
  <desc id="d">Time-series of mean monthly temperatures in Panama City versus Boquete highlands, showing roughly 17°F altitude differential year-round.</desc>
  <rect width="720" height="400" fill="#FFFDF5"/>
  <text x="48" y="38" font-family="JetBrains Mono, monospace" font-size="10" fill="#C2452A" letter-spacing="1.6">TEMPERATURE · °F · PANAMA</text>
  <text x="48" y="76" font-family="Fraunces, Georgia, serif" font-size="40" font-weight="500" fill="#0B2733" letter-spacing="-0.6">82°F avg</text>
  <text x="48" y="98" font-family="Manrope, sans-serif" font-size="13" fill="#3A4F58">Mean monthly temperature · Panama City vs Boquete · 2026</text>
  <g font-family="JetBrains Mono, monospace" font-size="10" fill="#6F8089" letter-spacing="1"><line x1="80" y1="160" x2="680" y2="160" stroke="#E8DECC"/>
<text x="64" y="164" text-anchor="end">88°F</text>
<line x1="80" y1="220" x2="680" y2="220" stroke="#E8DECC"/>
<text x="64" y="224" text-anchor="end">79°F</text>
<line x1="80" y1="280" x2="680" y2="280" stroke="#E8DECC"/>
<text x="64" y="284" text-anchor="end">70°F</text>
<line x1="80" y1="340" x2="680" y2="340" stroke="#E8DECC"/>
<text x="64" y="344" text-anchor="end">61°F</text>
</g>
  <g font-family="JetBrains Mono, monospace" font-size="10" fill="#6F8089" letter-spacing="1"><text x="80" y="362" text-anchor="middle">Jan</text>
<text x="135" y="362" text-anchor="middle">Feb</text>
<text x="189" y="362" text-anchor="middle">Mar</text>
<text x="244" y="362" text-anchor="middle">Apr</text>
<text x="298" y="362" text-anchor="middle">May</text>
<text x="353" y="362" text-anchor="middle">Jun</text>
<text x="407" y="362" text-anchor="middle">Jul</text>
<text x="462" y="362" text-anchor="middle">Aug</text>
<text x="516" y="362" text-anchor="middle">Sep</text>
<text x="571" y="362" text-anchor="middle">Oct</text>
<text x="625" y="362" text-anchor="middle">Nov</text>
<text x="680" y="362" text-anchor="middle">Dec</text>
</g>
  <polyline points="80,319 135,312 189,306 244,299 298,299 353,306 407,306 462,306 516,306 571,312 625,319 680,319" fill="none" stroke="#0B2733" stroke-width="1.5" stroke-dasharray="3 4"/>
  <polyline points="80,207 135,201 189,188 244,188 298,188 353,201 407,201 462,201 516,201 571,207 625,214 680,214" fill="none" stroke="#E86E4F" stroke-width="2.5" stroke-linejoin="round"/>
  <g fill="#E86E4F"><circle cx="80" cy="207" r="3.5"/>
<circle cx="135" cy="201" r="3.5"/>
<circle cx="189" cy="188" r="3.5"/>
<circle cx="244" cy="188" r="3.5"/>
<circle cx="298" cy="188" r="3.5"/>
<circle cx="353" cy="201" r="3.5"/>
<circle cx="407" cy="201" r="3.5"/>
<circle cx="462" cy="201" r="3.5"/>
<circle cx="516" cy="201" r="3.5"/>
<circle cx="571" cy="207" r="3.5"/>
<circle cx="625" cy="214" r="3.5"/>
<circle cx="680" cy="214" r="3.5"/>
</g>
  
  <text x="688" y="214" font-family="JetBrains Mono, monospace" font-size="11" font-weight="500" fill="#C2452A">80°F</text>
<text x="688" y="319" font-family="JetBrains Mono, monospace" font-size="11" fill="#0B2733">64°F</text>
  <g font-family="JetBrains Mono, monospace" font-size="10" letter-spacing="1.4"><line x1="48" y1="386" x2="68" y2="386" stroke="#E86E4F" stroke-width="2.5"/><text x="74" y="389" fill="#0B2733">PANAMA CITY</text><line x1="160" y1="386" x2="180" y2="386" stroke="#0B2733" stroke-width="1.5" stroke-dasharray="3 4"/><text x="186" y="389" fill="#0B2733">BOQUETE HIGHLANDS</text></g>
  <text x="680" y="389" font-family="JetBrains Mono, monospace" font-size="10" fill="#6F8089" text-anchor="end" letter-spacing="1">Source · ETESA / IMHPA climatology · 2026</text>
</svg>