<?xml version="1.0" encoding="UTF-8"?>
<svg xmlns="http://www.w3.org/2000/svg" viewBox="0 0 720 400" role="img" aria-labelledby="t d">
  <title id="t">Pedasí real estate price per m² 2018-2026</title>
  <desc id="d">Time-series line of Pedasí median price per m² rising from $850 to $1,620, alongside flatter Coronado strip baseline.</desc>
  <rect width="720" height="400" fill="#FFFDF5"/>
  <text x="48" y="38" font-family="JetBrains Mono, monospace" font-size="10" fill="#C2452A" letter-spacing="1.6">PEDASÍ · COASTAL PRICE PER M²</text>
  <text x="48" y="76" font-family="Fraunces, Georgia, serif" font-size="40" font-weight="500" fill="#0B2733" letter-spacing="-0.6">+91%</text>
  <text x="48" y="98" font-family="Manrope, sans-serif" font-size="13" fill="#3A4F58">Median price per m² · Pedasí · 2018 → 2026</text>
  <g font-family="JetBrains Mono, monospace" font-size="10" fill="#6F8089" letter-spacing="1"><line x1="80" y1="160" x2="680" y2="160" stroke="#E8DECC"/>
<text x="64" y="164" text-anchor="end">$1,942</text>
<line x1="80" y1="220" x2="680" y2="220" stroke="#E8DECC"/>
<text x="64" y="224" text-anchor="end">$1,557</text>
<line x1="80" y1="280" x2="680" y2="280" stroke="#E8DECC"/>
<text x="64" y="284" text-anchor="end">$1,182</text>
<line x1="80" y1="340" x2="680" y2="340" stroke="#E8DECC"/>
<text x="64" y="344" text-anchor="end">$808</text>
</g>
  <g font-family="JetBrains Mono, monospace" font-size="10" fill="#6F8089" letter-spacing="1"><text x="80" y="362" text-anchor="middle">2018</text>
<text x="155" y="362" text-anchor="middle">2019</text>
<text x="230" y="362" text-anchor="middle">2020</text>
<text x="305" y="362" text-anchor="middle">2021</text>
<text x="380" y="362" text-anchor="middle">2022</text>
<text x="455" y="362" text-anchor="middle">2023</text>
<text x="530" y="362" text-anchor="middle">2024</text>
<text x="605" y="362" text-anchor="middle">2025</text>
<text x="680" y="362" text-anchor="middle">2026</text>
</g>
  <polyline points="80,238 155,233 230,230 305,222 380,211 455,198 530,186 605,179 680,175" fill="none" stroke="#0B2733" stroke-width="1.5" stroke-dasharray="3 4"/>
  <polyline points="80,333 155,327 230,325 305,317 380,297 455,271 530,243 605,224 680,211" fill="none" stroke="#E86E4F" stroke-width="2.5" stroke-linejoin="round"/>
  <g fill="#E86E4F"><circle cx="80" cy="333" r="3.5"/>
<circle cx="155" cy="327" r="3.5"/>
<circle cx="230" cy="325" r="3.5"/>
<circle cx="305" cy="317" r="3.5"/>
<circle cx="380" cy="297" r="3.5"/>
<circle cx="455" cy="271" r="5" stroke="#FFFDF5" stroke-width="2"/>
<circle cx="530" cy="243" r="3.5"/>
<circle cx="605" cy="224" r="3.5"/>
<circle cx="680" cy="211" r="3.5"/>
</g>
  
        <line x1="455" y1="261.40969162995594" x2="455" y2="213.40969162995594" stroke="#C2452A" stroke-width="1"/>
        <rect x="399" y="191.40969162995594" width="112" height="22" fill="#C2452A" rx="2"/>
        <text x="460" y="206.40969162995594" font-family="JetBrains Mono, monospace" font-size="11" font-weight="500" fill="#FFF9EC" text-anchor="middle" letter-spacing="0.6">+15% · airport</text>
  <text x="688" y="211" font-family="JetBrains Mono, monospace" font-size="11" font-weight="500" fill="#C2452A">$1,620</text>
<text x="688" y="175" font-family="JetBrains Mono, monospace" font-size="11" fill="#0B2733">$1,850</text>
  <g font-family="JetBrains Mono, monospace" font-size="10" letter-spacing="1.4"><line x1="48" y1="386" x2="68" y2="386" stroke="#E86E4F" stroke-width="2.5"/><text x="74" y="389" fill="#0B2733">PEDASÍ</text><line x1="160" y1="386" x2="180" y2="386" stroke="#0B2733" stroke-width="1.5" stroke-dasharray="3 4"/><text x="186" y="389" fill="#0B2733">CORONADO STRIP</text></g>
  <text x="680" y="389" font-family="JetBrains Mono, monospace" font-size="10" fill="#6F8089" text-anchor="end" letter-spacing="1">Source · ACOBIR / direct ask · Apr 2026</text>
</svg>