<?xml version="1.0" encoding="UTF-8"?>
<svg xmlns="http://www.w3.org/2000/svg" viewBox="0 0 720 400" role="img" aria-labelledby="t d">
  <title id="t">Panama short-term rental gross yield 2018-2026</title>
  <desc id="d">Time-series of gross STR yields recovering from COVID dip with coastal yields outpacing urban by ~2 percentage points by 2026.</desc>
  <rect width="720" height="400" fill="#FFFDF5"/>
  <text x="48" y="38" font-family="JetBrains Mono, monospace" font-size="10" fill="#C2452A" letter-spacing="1.6">STR YIELD · 12-MO ROLLING</text>
  <text x="48" y="76" font-family="Fraunces, Georgia, serif" font-size="40" font-weight="500" fill="#0B2733" letter-spacing="-0.6">8.5% gross</text>
  <text x="48" y="98" font-family="Manrope, sans-serif" font-size="13" fill="#3A4F58">Short-term rental gross yield · by province · 2018 → 2026</text>
  <g font-family="JetBrains Mono, monospace" font-size="10" fill="#6F8089" letter-spacing="1"><line x1="80" y1="160" x2="680" y2="160" stroke="#E8DECC"/>
<text x="64" y="164" text-anchor="end">9%</text>
<line x1="80" y1="220" x2="680" y2="220" stroke="#E8DECC"/>
<text x="64" y="224" text-anchor="end">7%</text>
<line x1="80" y1="280" x2="680" y2="280" stroke="#E8DECC"/>
<text x="64" y="284" text-anchor="end">5%</text>
<line x1="80" y1="340" x2="680" y2="340" stroke="#E8DECC"/>
<text x="64" y="344" text-anchor="end">4%</text>
</g>
  <g font-family="JetBrains Mono, monospace" font-size="10" fill="#6F8089" letter-spacing="1"><text x="80" y="362" text-anchor="middle">2018</text>
<text x="155" y="362" text-anchor="middle">2019</text>
<text x="230" y="362" text-anchor="middle">2020</text>
<text x="305" y="362" text-anchor="middle">2021</text>
<text x="380" y="362" text-anchor="middle">2022</text>
<text x="455" y="362" text-anchor="middle">2023</text>
<text x="530" y="362" text-anchor="middle">2024</text>
<text x="605" y="362" text-anchor="middle">2025</text>
<text x="680" y="362" text-anchor="middle">2026</text>
</g>
  <polyline points="80,279 155,273 230,334 305,293 380,266 455,252 530,246 605,239 680,232" fill="none" stroke="#0B2733" stroke-width="1.5" stroke-dasharray="3 4"/>
  <polyline points="80,252 155,232 230,323 305,262 380,218 455,198 530,191 605,181 680,174" fill="none" stroke="#E86E4F" stroke-width="2.5" stroke-linejoin="round"/>
  <g fill="#E86E4F"><circle cx="80" cy="252" r="3.5"/>
<circle cx="155" cy="232" r="3.5"/>
<circle cx="230" cy="323" r="5" stroke="#FFFDF5" stroke-width="2"/>
<circle cx="305" cy="262" r="3.5"/>
<circle cx="380" cy="218" r="3.5"/>
<circle cx="455" cy="198" r="3.5"/>
<circle cx="530" cy="191" r="3.5"/>
<circle cx="605" cy="181" r="3.5"/>
<circle cx="680" cy="174" r="3.5"/>
</g>
  
        <line x1="230" y1="313.4054562558796" x2="230" y2="265.4054562558796" stroke="#C2452A" stroke-width="1"/>
        <rect x="194" y="243.40545625587959" width="72" height="22" fill="#C2452A" rx="2"/>
        <text x="235" y="258.4054562558796" font-family="JetBrains Mono, monospace" font-size="11" font-weight="500" fill="#FFF9EC" text-anchor="middle" letter-spacing="0.6">COVID dip</text>
  <text x="688" y="174" font-family="JetBrains Mono, monospace" font-size="11" font-weight="500" fill="#C2452A">8.5%</text>
<text x="688" y="232" font-family="JetBrains Mono, monospace" font-size="11" fill="#0B2733">6.8%</text>
  <g font-family="JetBrains Mono, monospace" font-size="10" letter-spacing="1.4"><line x1="48" y1="386" x2="68" y2="386" stroke="#E86E4F" stroke-width="2.5"/><text x="74" y="389" fill="#0B2733">BOCAS / COASTAL</text><line x1="160" y1="386" x2="180" y2="386" stroke="#0B2733" stroke-width="1.5" stroke-dasharray="3 4"/><text x="186" y="389" fill="#0B2733">PANAMA CITY URBAN</text></g>
  <text x="680" y="389" font-family="JetBrains Mono, monospace" font-size="10" fill="#6F8089" text-anchor="end" letter-spacing="1">Source · PRG aggregator data · Apr 2026</text>
</svg>