<?xml version="1.0" encoding="UTF-8"?>
<svg xmlns="http://www.w3.org/2000/svg" viewBox="0 0 720 450" role="img" aria-labelledby="t d">
  <title id="t">Wire transfer fees + FX spread to Panama, 2026</title>
  <desc id="d">Bar chart of 5 wire transfer providers showing fees and FX spread costs on a $50,000 transfer.</desc>
  <rect width="720" height="450" fill="#FFFDF5"/>
  <text x="48" y="34" font-family="JetBrains Mono, monospace" font-size="10" fill="#C2452A" letter-spacing="1.6">WIRE TRANSFER FEE · $50K USD</text>
  <text x="48" y="74" font-family="Fraunces, Georgia, serif" font-size="48" font-weight="500" fill="#0B2733" letter-spacing="-1">$45</text>
  <text x="48" y="100" font-family="Manrope, sans-serif" font-size="13" font-weight="500" fill="#3A4F58">Outgoing wire fee + FX spread to Panama, $50,000 USD transfer · 2026</text>
  <g font-family="Manrope, sans-serif">
        <text x="48" y="148" font-size="12" fill="#3A4F58">Wise</text>
        <rect x="200" y="138" width="42" height="14" fill="#E86E4F" rx="3"/>
        <text x="248" y="148" font-family="JetBrains Mono, monospace" font-size="11" fill="#0B2733">$45</text>
        <rect x="200" y="156" width="142" height="14" fill="#0B2733" rx="3"/>
        <text x="348" y="166" font-family="JetBrains Mono, monospace" font-size="11" fill="#0B2733">$150</text>
        <text x="48" y="196" font-size="12" fill="#3A4F58">Banco General · receive</text>
        <rect x="200" y="186" width="23" height="14" fill="#E86E4F" rx="3"/>
        <text x="229" y="196" font-family="JetBrains Mono, monospace" font-size="11" fill="#0B2733">$25</text>
        <rect x="200" y="204" width="76" height="14" fill="#0B2733" rx="3"/>
        <text x="282" y="214" font-family="JetBrains Mono, monospace" font-size="11" fill="#0B2733">$80</text>
        <text x="48" y="244" font-size="12" fill="#3A4F58">BBVA International</text>
        <rect x="200" y="234" width="71" height="14" fill="#E86E4F" rx="3"/>
        <text x="277" y="244" font-family="JetBrains Mono, monospace" font-size="11" fill="#0B2733">$75</text>
        <rect x="200" y="252" width="237" height="14" fill="#0B2733" rx="3"/>
        <text x="443" y="262" font-family="JetBrains Mono, monospace" font-size="11" fill="#0B2733">$250</text>
        <text x="48" y="292" font-size="12" fill="#3A4F58">Chase wire (US)</text>
        <rect x="200" y="282" width="47" height="14" fill="#E86E4F" rx="3"/>
        <text x="253" y="292" font-family="JetBrains Mono, monospace" font-size="11" fill="#0B2733">$50</text>
        <rect x="200" y="300" width="380" height="14" fill="#0B2733" rx="3"/>
        <text x="586" y="310" font-family="JetBrains Mono, monospace" font-size="11" fill="#0B2733">$400</text>
        <text x="48" y="340" font-size="12" fill="#3A4F58">Bank of America</text>
        <rect x="200" y="330" width="42" height="14" fill="#E86E4F" rx="3"/>
        <text x="248" y="340" font-family="JetBrains Mono, monospace" font-size="11" fill="#0B2733">$45</text>
        <rect x="200" y="348" width="332" height="14" fill="#0B2733" rx="3"/>
        <text x="538" y="358" font-family="JetBrains Mono, monospace" font-size="11" fill="#0B2733">$350</text>
  </g>
  <g font-family="JetBrains Mono, monospace" font-size="10" letter-spacing="1.4">
    <rect x="48" y="406" width="10" height="10" fill="#E86E4F"/>
    <text x="64" y="415" fill="#0B2733">WIRE FEE</text>
    <rect x="180" y="406" width="10" height="10" fill="#0B2733"/>
    <text x="196" y="415" fill="#0B2733">FX SPREAD COST</text>
  </g>
  <text x="672" y="415" font-family="JetBrains Mono, monospace" font-size="10" fill="#6F8089" text-anchor="end" letter-spacing="1">Source · Direct quotes · Apr 2026</text>
</svg>