<?xml version="1.0" encoding="UTF-8"?>
<svg xmlns="http://www.w3.org/2000/svg" viewBox="0 0 720 450" role="img" aria-labelledby="t d">
  <title id="t">Panama supermarket weekly grocery cost by chain, 2026</title>
  <desc id="d">Bar chart of 5 Panamanian supermarket chains comparing weekly grocery basket cost with vs without imported items.</desc>
  <rect width="720" height="450" fill="#FFFDF5"/>
  <text x="48" y="34" font-family="JetBrains Mono, monospace" font-size="10" fill="#C2452A" letter-spacing="1.6">WEEKLY GROCERY · COUPLE · 2026</text>
  <text x="48" y="74" font-family="Fraunces, Georgia, serif" font-size="48" font-weight="500" fill="#0B2733" letter-spacing="-1">$110</text>
  <text x="48" y="100" font-family="Manrope, sans-serif" font-size="13" font-weight="500" fill="#3A4F58">Weekly grocery basket for couple, by chain · Panama 2026</text>
  <g font-family="Manrope, sans-serif">
        <text x="48" y="148" font-size="12" fill="#3A4F58">Riba Smith (premium)</text>
        <rect x="200" y="138" width="380" height="14" fill="#E86E4F" rx="3"/>
        <text x="586" y="148" font-family="JetBrains Mono, monospace" font-size="11" fill="#0B2733">$165</text>
        <rect x="200" y="156" width="276" height="14" fill="#0B2733" rx="3"/>
        <text x="482" y="166" font-family="JetBrains Mono, monospace" font-size="11" fill="#0B2733">$120</text>
        <text x="48" y="196" font-size="12" fill="#3A4F58">PriceSmart (bulk)</text>
        <rect x="200" y="186" width="218" height="14" fill="#E86E4F" rx="3"/>
        <text x="424" y="196" font-family="JetBrains Mono, monospace" font-size="11" fill="#0B2733">$95</text>
        <rect x="200" y="204" width="184" height="14" fill="#0B2733" rx="3"/>
        <text x="390" y="214" font-family="JetBrains Mono, monospace" font-size="11" fill="#0B2733">$80</text>
        <text x="48" y="244" font-size="12" fill="#3A4F58">Super 99</text>
        <rect x="200" y="234" width="253" height="14" fill="#E86E4F" rx="3"/>
        <text x="459" y="244" font-family="JetBrains Mono, monospace" font-size="11" fill="#0B2733">$110</text>
        <rect x="200" y="252" width="195" height="14" fill="#0B2733" rx="3"/>
        <text x="401" y="262" font-family="JetBrains Mono, monospace" font-size="11" fill="#0B2733">$85</text>
        <text x="48" y="292" font-size="12" fill="#3A4F58">Xtra</text>
        <rect x="200" y="282" width="218" height="14" fill="#E86E4F" rx="3"/>
        <text x="424" y="292" font-family="JetBrains Mono, monospace" font-size="11" fill="#0B2733">$95</text>
        <rect x="200" y="300" width="172" height="14" fill="#0B2733" rx="3"/>
        <text x="378" y="310" font-family="JetBrains Mono, monospace" font-size="11" fill="#0B2733">$75</text>
        <text x="48" y="340" font-size="12" fill="#3A4F58">El Rey</text>
        <rect x="200" y="330" width="287" height="14" fill="#E86E4F" rx="3"/>
        <text x="493" y="340" font-family="JetBrains Mono, monospace" font-size="11" fill="#0B2733">$125</text>
        <rect x="200" y="348" width="218" height="14" fill="#0B2733" rx="3"/>
        <text x="424" y="358" font-family="JetBrains Mono, monospace" font-size="11" fill="#0B2733">$95</text>
  </g>
  <g font-family="JetBrains Mono, monospace" font-size="10" letter-spacing="1.4">
    <rect x="48" y="406" width="10" height="10" fill="#E86E4F"/>
    <text x="64" y="415" fill="#0B2733">WITH IMPORTS</text>
    <rect x="180" y="406" width="10" height="10" fill="#0B2733"/>
    <text x="196" y="415" fill="#0B2733">LOCAL ONLY</text>
  </g>
  <text x="672" y="415" font-family="JetBrains Mono, monospace" font-size="10" fill="#6F8089" text-anchor="end" letter-spacing="1">Source · PRG basket survey · Apr 2026</text>
</svg>